<svg width="52" height="52" viewBox="0 0 52 52" fill="none" xmlns="http://www.w3.org/2000/svg">
<path d="M19 7.33325L24.8334 20.1666L37.6667 25.9999L24.8334 31.8333L19 44.6666L13.1667 31.8333L0.333374 25.9999L13.1667 20.1666L19 7.33325ZM19 18.6033L16.6667 23.6666L11.6034 25.9999L16.6667 28.3333L19 33.3966L21.3334 28.3333L26.3967 25.9999L21.3334 23.6666L19 18.6033ZM42.3334 18.9999L39.3934 12.6066L33 9.66658L39.3934 6.74992L42.3334 0.333252L45.25 6.74992L51.6667 9.66658L45.25 12.6066L42.3334 18.9999ZM42.3334 51.6666L39.3934 45.2733L33 42.3333L39.3934 39.4166L42.3334 32.9999L45.25 39.4166L51.6667 42.3333L45.25 45.2733L42.3334 51.6666Z" fill="white"/>
</svg>
