<svg width="21" height="26" viewBox="0 0 21 26" fill="none" xmlns="http://www.w3.org/2000/svg">
<path d="M0 3.625C0 2.7962 0.32924 2.00134 0.915291 1.41529C1.50134 0.82924 2.2962 0.5 3.125 0.5H17.5C17.9104 0.5 18.3167 0.580831 18.6959 0.737876C19.075 0.894922 19.4195 1.12511 19.7097 1.41529C19.9999 1.70547 20.2301 2.04997 20.3871 2.42911C20.5442 2.80826 20.625 3.21462 20.625 3.625V21.4375C20.625 21.6861 20.5262 21.9246 20.3504 22.1004C20.1746 22.2762 19.9361 22.375 19.6875 22.375H1.875C1.875 22.7065 2.0067 23.0245 2.24112 23.2589C2.47554 23.4933 2.79348 23.625 3.125 23.625H19.6875C19.9361 23.625 20.1746 23.7238 20.3504 23.8996C20.5262 24.0754 20.625 24.3139 20.625 24.5625C20.625 24.8111 20.5262 25.0496 20.3504 25.2254C20.1746 25.4012 19.9361 25.5 19.6875 25.5H3.125C2.2962 25.5 1.50134 25.1708 0.915291 24.5847C0.32924 23.9987 0 23.2038 0 22.375V3.625ZM10.3125 8C10.644 8 10.962 7.8683 11.1964 7.63388C11.4308 7.39946 11.5625 7.08152 11.5625 6.75C11.5625 6.41848 11.4308 6.10054 11.1964 5.86612C10.962 5.6317 10.644 5.5 10.3125 5.5C9.98098 5.5 9.66304 5.6317 9.42862 5.86612C9.1942 6.10054 9.0625 6.41848 9.0625 6.75C9.0625 7.08152 9.1942 7.39946 9.42862 7.63388C9.66304 7.8683 9.98098 8 10.3125 8ZM9.375 10.1875V16.4375C9.375 16.6861 9.47377 16.9246 9.64959 17.1004C9.8254 17.2762 10.0639 17.375 10.3125 17.375C10.5611 17.375 10.7996 17.2762 10.9754 17.1004C11.1512 16.9246 11.25 16.6861 11.25 16.4375V10.1875C11.25 9.93886 11.1512 9.7004 10.9754 9.52459C10.7996 9.34877 10.5611 9.25 10.3125 9.25C10.0639 9.25 9.8254 9.34877 9.64959 9.52459C9.47377 9.7004 9.375 9.93886 9.375 10.1875Z" fill="#4A9390"/>
</svg>
